<svg xmlns="http://www.w3.org/2000/svg" xml:space="preserve" width="800" height="800" viewBox="0 0 451.277 451.277">
    <circle cx="225.638" cy="225.638" r="225.638" style="fill:#45b39c"/>
    <path d="M450.101 248.95 314.14 113.023l-.329-.33a3.769 3.769 0 0 0-2.68-1.128h-4.56l-10.155-10.108-.423-.47-.94-.94c-2.492-2.304-5.782-3.714-9.402-3.714H165.629c-7.71 0-13.963 6.3-13.963 14.01v1.222h-11.518c-1.739 0-3.291 1.175-3.761 2.821l-4.043 14.809a3.764 3.764 0 0 0 1.222 3.949h-.047l9.779 9.778 7.193 54.911 12.27 93.319 6.958 52.888c.376 2.915 1.692 5.453 3.667 7.287l95.74 95.74c96.366-18.82 170.795-98.931 180.975-198.117z" style="opacity:.1;enable-background:new"/>
    <path d="M299.625 116.862H151.652v-5.275c0-8.413 6.82-15.233 15.233-15.233h117.508c8.413 0 15.233 6.82 15.233 15.233v5.275z" style="fill:#d15241"/>
    <path d="m318.941 129.184-4.056-14.775a3.882 3.882 0 0 0-3.742-2.854h-171.01a3.881 3.881 0 0 0-3.742 2.854l-4.056 14.775c-.678 2.47 1.18 4.908 3.742 4.908h179.121c2.562-.001 4.421-2.438 3.743-4.908z" style="fill:#e56353"/>
    <path d="M169.71 344.049a12.502 12.502 0 0 0 12.396 10.872h87.065a12.502 12.502 0 0 0 12.396-10.872l6.953-52.875H162.757l6.953 52.875zM309.174 134.091H142.103l8.382 63.748h150.307z" style="fill:#fcd462"/>
    <path d="m150.485 197.839 12.272 93.335h125.762l12.273-93.335z" style="fill:#dc8744"/>
    <path d="M245.284 264.153c11.24-11.24 15.068-26.456 10.489-37.627-8.99-.165-17.963 4.22-23.268 11.502-1.841 2.527-3.276 5.37-4.795 8.379-.589 1.165-1.177 2.33-1.791 3.48a88.097 88.097 0 0 1-13.551 18.888c-1.039 1.104-3.243 3.437-6.211 5.194 11.277 5.589 27.376 1.934 39.127-9.816z" style="fill:#ad6636"/>
    <path d="M207.182 263.899a80.927 80.927 0 0 0 12.456-17.361c.588-1.102 1.152-2.221 1.716-3.338 1.581-3.131 3.215-6.368 5.396-9.363 5.747-7.889 14.928-13.065 24.588-14.196-.135-.143-.264-.291-.403-.431-10.85-10.849-30.971-8.319-44.943 5.652-13.629 13.629-16.364 33.106-6.419 44.124 2.202-.334 4.703-1.997 7.609-5.087z" style="fill:#ad6636"/>
    <path d="M212.369 268.775a88.107 88.107 0 0 0 13.551-18.888c.614-1.15 1.202-2.315 1.791-3.48 1.519-3.009 2.954-5.852 4.795-8.379 5.304-7.282 14.278-11.667 23.268-11.502a22.185 22.185 0 0 0-4.433-6.885c-9.66 1.132-18.841 6.307-24.588 14.196-2.182 2.995-3.816 6.232-5.396 9.363-.564 1.117-1.128 2.235-1.716 3.338a80.961 80.961 0 0 1-12.456 17.361c-2.906 3.09-5.407 4.753-7.607 5.088.25.277.501.552.767.818a22.009 22.009 0 0 0 5.816 4.164c2.965-1.757 5.169-4.089 6.208-5.194z" style="fill:#995b30"/>
</svg>